<svg xmlns="http://www.w3.org/2000/svg" xmlns:xlink="http://www.w3.org/1999/xlink" fill="none" version="1.1" width="12.25" height="14" viewBox="0 0 12.25 14"><g transform="matrix(1,0,0,-1,0,28)"><path d="M2.625,27.125L2.625,26.25L2.625,27.125L2.625,26.25L1.3125,26.25Q0.765625,26.2227,0.382812,25.8672Q0.0273438,25.4844,0,24.9375L0,23.625L12.25,23.625L12.25,24.9375Q12.2227,25.4844,11.8672,25.8672Q11.4844,26.2227,10.9375,26.25L9.625,26.25L9.625,27.125Q9.625,27.5078,9.37891,27.7539Q9.13281,28,8.75,28Q8.36719,28,8.12109,27.7539Q7.875,27.5078,7.875,27.125L7.875,26.25L4.375,26.25L4.375,27.125Q4.375,27.5078,4.12891,27.7539Q3.88281,28,3.5,28Q3.11719,28,2.87109,27.7539Q2.625,27.5078,2.625,27.125ZM12.25,22.75L0,22.75L12.25,22.75L0,22.75L0,15.3125Q0.0273438,14.765625,0.382812,14.382812Q0.765625,14.0273438,1.3125,14L10.9375,14Q11.4844,14.0273438,11.8672,14.382812Q12.2227,14.765625,12.25,15.3125L12.25,22.75Z" fill="#4B5563" fill-opacity="1" style="mix-blend-mode:passthrough"/></g></svg>