<?xml version="1.0" encoding="UTF-8"?>
<svg width="400" height="533" viewBox="0 0 400 533" fill="none" xmlns="http://www.w3.org/2000/svg">
    <!-- 배경 -->
    <rect width="400" height="533" fill="#374151"/>
    
    <!-- 이미지 아이콘 -->
    <g transform="translate(200, 266.5) scale(4)">
        <path d="M4 16l4.586-4.586a2 2 0 012.828 0L16 16m-2-2l1.586-1.586a2 2 0 012.828 0L20 14m-6-6h.01M6 20h12a2 2 0 002-2V6a2 2 0 00-2-2H6a2 2 0 00-2 2v12a2 2 0 002 2z" 
              stroke="#9CA3AF" 
              stroke-width="1.5" 
              stroke-linecap="round" 
              stroke-linejoin="round"
              transform="translate(-12, -12)"/>
    </g>
</svg> 