<svg xmlns="http://www.w3.org/2000/svg" xmlns:xlink="http://www.w3.org/1999/xlink" fill="none" version="1.1" width="20.758874893188477" height="24" viewBox="0 0 20.758874893188477 24"><defs><linearGradient x1="0.5" y1="0" x2="0.5" y2="1" id="master_svg0_134_13429"><stop offset="0%" stop-color="#FFD896" stop-opacity="1"/><stop offset="52.85714268684387%" stop-color="#FFB230" stop-opacity="1"/></linearGradient></defs><g><path d="M13.4386,4.24779C14.6453,4.24779,15.6236,3.29689,15.6236,2.12389C15.6236,0.9509,14.6453,0,13.4386,0C12.2318,0,11.2535,0.9509,11.2535,2.12389C11.2535,3.29689,12.2318,4.24779,13.4386,4.24779ZM14.9222,15.1816C15.226,15.445,15.462,15.7795,15.5778,16.1692L15.5767,16.1703C15.7722,16.8319,15.6258,17.5476,15.1834,18.085L11.7779,22.2223C11.5627,22.4846,11.2447,22.6205,10.9246,22.6205C10.6853,22.6205,10.445,22.5451,10.2429,22.388C9.77198,22.0216,9.69551,21.3526,10.0724,20.8949L11.2092,18.8904L12.346,16.886L8.82367,15.347L1.99307,23.5381C1.78112,23.8386,1.43915,24,1.09063,24C0.878678,24,0.663447,23.9405,0.474437,23.8142C-0.0226703,23.4828,-0.149405,22.8223,0.191468,22.3381L3.18722,18.0595L5.80983,11.8662C5.8226,11.8327,5.83627,11.7994,5.85084,11.7664L8.13754,6.59894L4.70258,5.74513L1.86524,8.50301C1.43915,8.91823,0.74648,8.91823,0.320388,8.50301C-0.106796,8.08885,-0.106796,7.41558,0.320388,7.00142L3.59802,3.81558C3.87115,3.55009,4.26775,3.44389,4.6414,3.53735L11.3289,5.19929C11.7304,5.29906,12.0928,5.50034,12.3834,5.77481L16.3105,8.64L18.8936,6.47044C19.3197,6.05522,20.0124,6.05522,20.4385,6.47044C20.8657,6.8846,20.8657,7.55788,20.4385,7.97204L17.1609,11.1579C16.9489,11.3639,16.6692,11.469,16.3884,11.469C16.1415,11.469,15.8924,11.3883,15.6892,11.2227L12.346,9.17365L10.0517,12.3919L14.6065,14.9458C14.6961,15.0021,14.837,15.1083,14.9222,15.1816Z" fill-rule="evenodd" fill="url(#master_svg0_134_13429)" fill-opacity="1"/></g></svg>