<svg xmlns="http://www.w3.org/2000/svg" xmlns:xlink="http://www.w3.org/1999/xlink" fill="none" version="1.1" width="17.5" height="10.5" viewBox="0 0 17.5 10.5"><g transform="matrix(1,0,0,-1,0,21)"><path d="M5.25,21Q3.00781,20.9453,1.53125,19.46875Q0.0546875,17.99219,0,15.75Q0.0546875,13.50781,1.53125,12.03125Q3.00781,10.5546875,5.25,10.5L12.25,10.5Q14.4922,10.5546875,15.9688,12.03125Q17.4453,13.50781,17.5,15.75Q17.4453,17.99219,15.9688,19.46875Q14.4922,20.9453,12.25,21L5.25,21ZM13.5625,18.15625Q14.1914,18.12891,14.5195,17.60938Q14.793,17.0625,14.5195,16.51562Q14.1914,15.996089999999999,13.5625,15.96875Q12.9336,15.996089999999999,12.6055,16.51562Q12.332,17.0625,12.6055,17.60938Q12.9336,18.12891,13.5625,18.15625ZM10.7188,14.4375Q10.7461,15.066410000000001,11.2656,15.39453Q11.8125,15.66797,12.3594,15.39453Q12.8789,15.066410000000001,12.9062,14.4375Q12.8789,13.80859,12.3594,13.48047Q11.8125,13.20703,11.2656,13.48047Q10.7461,13.80859,10.7188,14.4375ZM4.59375,17.28125Q4.64844,17.88281,5.25,17.9375Q5.85156,17.88281,5.90625,17.28125L5.90625,16.40625L6.78125,16.40625Q7.38281,16.35156,7.4375,15.75Q7.38281,15.14844,6.78125,15.09375L5.90625,15.09375L5.90625,14.21875Q5.85156,13.61719,5.25,13.5625Q4.64844,13.61719,4.59375,14.21875L4.59375,15.09375L3.71875,15.09375Q3.11719,15.14844,3.0625,15.75Q3.11719,16.35156,3.71875,16.40625L4.59375,16.40625L4.59375,17.28125Z" fill="#4B5563" fill-opacity="1" style="mix-blend-mode:passthrough"/></g></svg>