<svg xmlns="http://www.w3.org/2000/svg" xmlns:xlink="http://www.w3.org/1999/xlink" fill="none" version="1.1" width="78.2142333984375" height="33" viewBox="0 0 78.2142333984375 33"><defs><linearGradient x1="0.5" y1="0" x2="0.5" y2="1" id="master_svg0_134_13429"><stop offset="0%" stop-color="#FFD896" stop-opacity="1"/><stop offset="52.85714268684387%" stop-color="#FFB230" stop-opacity="1"/></linearGradient></defs><g><g><g><path d="M19.666262086486817,8.74779C20.872962086486815,8.74779,21.851262086486816,7.796889999999999,21.851262086486816,6.623889999999999C21.851262086486816,5.4509,20.872962086486815,4.5,19.666262086486817,4.5C18.459462086486816,4.5,17.48116208648682,5.4509,17.48116208648682,6.623889999999999C17.48116208648682,7.796889999999999,18.459462086486816,8.74779,19.666262086486817,8.74779ZM21.149862086486817,19.6816C21.453662086486815,19.945,21.689662086486816,20.2795,21.805462086486816,20.6692L21.80436208648682,20.6703C21.999862086486814,21.3319,21.853462086486815,22.0476,21.411062086486815,22.585L18.00556208648682,26.7223C17.790362086486816,26.9846,17.472362086486818,27.1205,17.152262086486814,27.1205C16.912962086486814,27.1205,16.672662086486817,27.0451,16.470562086486815,26.888C15.999642086486816,26.5216,15.923172086486817,25.8526,16.300062086486818,25.3949L17.436862086486816,23.3904L18.573662086486816,21.386L15.051332086486816,19.847L8.220732086486816,28.0381C8.008782086486816,28.3386,7.666812086486816,28.5,7.318292086486816,28.5C7.106340086486816,28.5,6.891109086486816,28.4405,6.702099086486816,28.3142C6.204991786486817,27.9828,6.078257086486817,27.3223,6.419130086486817,26.8381L9.414882086486816,22.5595L12.037492086486816,16.3662C12.050262086486818,16.332700000000003,12.063932086486815,16.2994,12.078502086486816,16.2664L14.365202086486816,11.098939999999999L10.930242086486817,10.24513L8.092902086486816,13.00301C7.666812086486816,13.41823,6.974142086486816,13.41823,6.548050086486817,13.00301C6.120866086486816,12.58885,6.120866086486816,11.91558,6.548050086486817,11.50142L9.825682086486816,8.31558C10.098812086486816,8.05009,10.495412086486816,7.94389,10.869062086486817,8.03735L17.556562086486817,9.699290000000001C17.958062086486816,9.79906,18.320462086486817,10.00034,18.611062086486818,10.27481L22.538162086486818,13.14L25.121262086486816,10.97044C25.547362086486817,10.55522,26.240062086486816,10.55522,26.666162086486818,10.97044C27.093362086486817,11.384599999999999,27.093362086486817,12.05788,26.666162086486818,12.47204L23.388562086486818,15.6579C23.176562086486815,15.8639,22.896862086486816,15.969,22.616062086486817,15.969C22.369162086486817,15.969,22.12006208648682,15.8883,21.916862086486816,15.7227L18.573662086486816,13.67365L16.279362086486817,16.8919L20.834162086486817,19.4458C20.923762086486818,19.5021,21.064662086486816,19.6083,21.149862086486817,19.6816Z" fill-rule="evenodd" fill="url(#master_svg0_134_13429)" fill-opacity="1"/></g></g><g><path d="M45.46619906616211,13.96L53.578199066162114,13.96L53.578199066162114,17.008L45.46619906616211,17.008L45.46619906616211,13.96ZM34.49819906616211,21.712L54.874199066162106,21.712L54.874199066162106,24.832L34.49819906616211,24.832L34.49819906616211,21.712ZM42.68219906616211,17.872L46.54619906616211,17.872L46.54619906616211,23.08L42.68219906616211,23.08L42.68219906616211,17.872ZM45.46619906616211,6.448L53.48219906616211,6.448L53.48219906616211,9.52L49.33019906616211,9.52L49.33019906616211,15.496L45.46619906616211,15.496L45.46619906616211,6.448ZM35.93819906616211,6.448L44.05019906616211,6.448L44.05019906616211,9.52L39.80219906616211,9.52L39.80219906616211,15.208L35.93819906616211,15.208L35.93819906616211,6.448ZM35.93819906616211,13.864L37.45019906616211,13.864Q38.89019906616211,13.864,40.00619906616211,13.84Q41.12219906616211,13.816,42.11969906616211,13.7162Q43.11757906616211,13.6165,44.17019906616211,13.432L44.41019906616211,16.576Q43.35419906616211,16.768,42.31019906616211,16.864Q41.26619906616211,16.96,40.10219906616211,16.984Q38.93819906616211,17.008,37.45019906616211,17.008L35.93819906616211,17.008L35.93819906616211,13.864ZM66.98219906616211,18.304Q69.34619906616211,18.304,71.07419906616211,18.844Q72.8021990661621,19.384,73.75019906616211,20.3875Q74.69819906616212,21.391,74.69819906616212,22.816Q74.69819906616212,24.229,73.75019906616211,25.2385Q72.8021990661621,26.248,71.07419906616211,26.788Q69.34619906616211,27.328,66.98219906616211,27.328Q64.6181990661621,27.328,62.86619906616211,26.788Q61.11419906616211,26.248,60.16619906616211,25.2377Q59.218199066162114,24.2279,59.218199066162114,22.8141Q59.218199066162114,21.4,60.16619906616211,20.392Q61.11419906616211,19.384,62.86619906616211,18.844Q64.6181990661621,18.304,66.98219906616211,18.304ZM66.98219906616211,21.328Q65.67419906616212,21.328,64.81019906616211,21.472Q63.94619906616211,21.616,63.51419906616211,21.94Q63.082199066162104,22.264,63.082199066162104,22.8089Q63.082199066162104,23.368,63.51419906616211,23.704Q63.94619906616211,24.04,64.81019906616211,24.196Q65.67419906616212,24.352,66.98219906616211,24.352Q68.2901990661621,24.352,69.1421990661621,24.196Q69.99419906616211,24.04,70.42619906616211,23.704Q70.85819906616211,23.368,70.85819906616211,22.8089Q70.85819906616211,22.264,70.42619906616211,21.94Q69.99419906616211,21.616,69.1421990661621,21.472Q68.2901990661621,21.328,66.98219906616211,21.328ZM70.5461990661621,4.768L74.41019906616211,4.768L74.41019906616211,17.872L70.5461990661621,17.872L70.5461990661621,4.768ZM73.35419906616211,9.76L77.2181990661621,9.76L77.2181990661621,12.928L73.35419906616211,12.928L73.35419906616211,9.76ZM57.05819906616211,6.184L60.89819906616211,6.184L60.89819906616211,8.656L64.2581990661621,8.656L64.2581990661621,6.184L68.09819906616211,6.184L68.09819906616211,16.888L57.05819906616211,16.888L57.05819906616211,6.184ZM60.89819906616211,11.608L60.89819906616211,13.888L64.2581990661621,13.888L64.2581990661621,11.608L60.89819906616211,11.608Z" fill="#FFB230" fill-opacity="1"/></g></g></svg>