<svg xmlns="http://www.w3.org/2000/svg" xmlns:xlink="http://www.w3.org/1999/xlink" fill="none" version="1.1" width="78.2142333984375" height="32" viewBox="0 0 78.2142333984375 32"><defs><linearGradient x1="0.5" y1="0" x2="0.5" y2="1" id="master_svg0_41_03539"><stop offset="69.9999988079071%" stop-color="#5046E4" stop-opacity="1"/><stop offset="100%" stop-color="#9446E2" stop-opacity="1"/></linearGradient><linearGradient x1="55.71419906616211" y1="2" x2="55.71419906616211" y2="42.87470722198486" gradientUnits="userSpaceOnUse" id="master_svg1_41_00388"><stop offset="25%" stop-color="#5046E4" stop-opacity="1"/><stop offset="100%" stop-color="#E446E1" stop-opacity="1"/></linearGradient></defs><g><g><g><path d="M19.666262086486817,8.24779C20.872962086486815,8.24779,21.851262086486816,7.296889999999999,21.851262086486816,6.123889999999999C21.851262086486816,4.9509,20.872962086486815,4,19.666262086486817,4C18.459462086486816,4,17.48116208648682,4.9509,17.48116208648682,6.123889999999999C17.48116208648682,7.296889999999999,18.459462086486816,8.24779,19.666262086486817,8.24779ZM21.149862086486817,19.1816C21.453662086486815,19.445,21.689662086486816,19.7795,21.805462086486816,20.1692L21.80436208648682,20.1703C21.999862086486814,20.8319,21.853462086486815,21.5476,21.411062086486815,22.085L18.00556208648682,26.2223C17.790362086486816,26.4846,17.472362086486818,26.6205,17.152262086486814,26.6205C16.912962086486814,26.6205,16.672662086486817,26.5451,16.470562086486815,26.388C15.999642086486816,26.0216,15.923172086486817,25.3526,16.300062086486818,24.8949L18.573662086486816,20.886L15.051332086486816,19.347L8.220732086486816,27.5381C8.008782086486816,27.8386,7.666812086486816,28,7.318292086486816,28C7.106340086486816,28,6.891109086486816,27.9405,6.702099086486816,27.8142C6.204991786486817,27.4828,6.078257086486817,26.8223,6.419130086486817,26.3381L9.414882086486816,22.0595L12.037492086486816,15.8662C12.050262086486818,15.8327,12.063932086486815,15.7994,12.078502086486816,15.7664L14.365202086486816,10.598939999999999L10.930242086486817,9.74513L8.092902086486816,12.50301C7.666812086486816,12.91823,6.974142086486816,12.91823,6.548050086486817,12.50301C6.120866086486816,12.08885,6.120866086486816,11.41558,6.548050086486817,11.00142L9.825682086486816,7.815580000000001C10.098812086486816,7.55009,10.495412086486816,7.44389,10.869062086486817,7.53735L17.556562086486817,9.199290000000001C17.958062086486816,9.29906,18.320462086486817,9.50034,18.611062086486818,9.77481L22.538162086486818,12.64L25.121262086486816,10.47044C25.547362086486817,10.05522,26.240062086486816,10.05522,26.666162086486818,10.47044C27.093362086486817,10.884599999999999,27.093362086486817,11.55788,26.666162086486818,11.97204L23.388562086486818,15.1579C23.176562086486815,15.3639,22.896862086486816,15.469,22.616062086486817,15.469C22.369162086486817,15.469,22.12006208648682,15.3883,21.916862086486816,15.2227L18.573662086486816,13.17365L16.279362086486817,16.3919L20.834162086486817,18.9458C20.923762086486818,19.0021,21.064662086486816,19.1083,21.149862086486817,19.1816Z" fill-rule="evenodd" fill="url(#master_svg0_41_03539)" fill-opacity="1"/></g></g><g><path d="M45.36039906616211,14.4036L53.361799066162106,14.4036L53.361799066162106,16.9394L45.36039906616211,16.9394L45.36039906616211,14.4036ZM34.61969906616211,21.976L54.74219906616211,21.976L54.74219906616211,24.568L34.61969906616211,24.568L34.61969906616211,21.976ZM43.02006906616211,17.877200000000002L46.20309906616211,17.877200000000002L46.20309906616211,23.1329L43.02006906616211,23.1329L43.02006906616211,17.877200000000002ZM45.36039906616211,6.712L53.218199066162114,6.712L53.218199066162114,9.2665L48.54869906616211,9.2665L48.54869906616211,15.6966L45.36039906616211,15.6966L45.36039906616211,6.712ZM36.14932906616211,6.7225L43.98159906616211,6.7225L43.98159906616211,9.277000000000001L39.33756906616211,9.277000000000001L39.33756906616211,15.4825L36.14932906616211,15.4825L36.14932906616211,6.7225ZM36.14932906616211,14.3286L37.55032906616211,14.3286Q38.85307906616211,14.3286,39.93457906616211,14.2994Q41.01644906616211,14.2701,42.03494906616211,14.158Q43.05344906616211,14.0455,44.12779906616211,13.8385L44.35209906616211,16.4493Q43.25409906616211,16.6622,42.19657906616211,16.7717Q41.13944906616211,16.8809,40.02007906616211,16.9101Q38.90107906616211,16.9394,37.55032906616211,16.9394L36.14932906616211,16.9394L36.14932906616211,14.3286ZM66.9319990661621,18.4727Q69.24039906616211,18.4727,70.92079906616212,18.9917Q72.60159906616211,19.5107,73.51769906616211,20.4756Q74.43419906616211,21.4405,74.43419906616211,22.8107Q74.43419906616211,24.1716,73.51769906616211,25.1436Q72.60159906616211,26.116,70.92079906616212,26.6346Q69.24039906616211,27.1536,66.9319990661621,27.1536Q64.62349906616211,27.1536,62.924299066162106,26.6346Q61.225199066162105,26.116,60.308699066162106,25.1432Q59.392599066162106,24.1709,59.392599066162106,22.8092Q59.392599066162106,21.4476,60.308699066162106,20.4794Q61.225199066162105,19.5107,62.924299066162106,18.9917Q64.62349906616211,18.4727,66.9319990661621,18.4727ZM66.9319990661621,20.9849Q65.51599906616211,20.9849,64.5461990661621,21.1791Q63.57679906616211,21.373,63.07319906616211,21.7765Q62.56999906616211,22.1796,62.56999906616211,22.8051Q62.56999906616211,23.4471,63.07319906616211,23.8596Q63.57679906616211,24.2721,64.5461990661621,24.4757Q65.51599906616211,24.6794,66.9319990661621,24.6794Q68.3482990661621,24.6794,69.31089906616211,24.4757Q70.2738990661621,24.2721,70.77459906616211,23.8596Q71.27519906616212,23.4471,71.27519906616212,22.8051Q71.27519906616212,22.1796,70.77459906616211,21.7765Q70.2738990661621,21.373,69.31089906616211,21.1791Q68.3482990661621,20.9849,66.9319990661621,20.9849ZM70.98419906616212,4.9105L74.17249906616212,4.9105L74.17249906616212,17.9882L70.98419906616212,17.9882L70.98419906616212,4.9105ZM73.3012990661621,10.06637L77.1232990661621,10.06637L77.1232990661621,12.6959L73.3012990661621,12.6959L73.3012990661621,10.06637ZM57.327499066162105,6.3055L60.49169906616211,6.3055L60.49169906616211,9.0625L64.84959906616211,9.0625L64.84959906616211,6.3055L68.0085990661621,6.3055L68.0085990661621,16.761200000000002L57.327499066162105,16.761200000000002L57.327499066162105,6.3055ZM60.49169906616211,11.51837L60.49169906616211,14.263L64.84959906616211,14.263L64.84959906616211,11.51837L60.49169906616211,11.51837Z" fill="url(#master_svg1_41_00388)" fill-opacity="1"/></g></g></svg>