<svg xmlns="http://www.w3.org/2000/svg" xmlns:xlink="http://www.w3.org/1999/xlink" fill="none" version="1.1" width="10.5" height="13.97265625" viewBox="0 0 10.5 13.97265625"><g transform="matrix(1,0,0,-1,0,27.9453125)"><path d="M5.90625,14.30078125Q6.64453,15.20312625,7.71094,16.73437625Q8.77734,18.23827625,9.625,19.85156625Q10.4453,21.46484625,10.5,22.695316249999998Q10.4453,24.93745625,8.96875,26.41405625Q7.49219,27.89065625,5.25,27.94535625Q3.00781,27.89065625,1.53125,26.41405625Q0.0546875,24.93745625,0,22.695316249999998Q0.0546875,21.46484625,0.875,19.85156625Q1.72266,18.23827625,2.78906,16.73437625Q3.85547,15.20312625,4.59375,14.30078125Q4.86719,13.97265625,5.25,13.97265625Q5.63281,13.97265625,5.90625,14.30078125ZM5.25,24.44535625Q6.23438,24.41795625,6.75391,23.570316249999998Q7.24609,22.695316249999998,6.75391,21.82031625Q6.23438,20.97265625,5.25,20.94531625Q4.26562,20.97265625,3.74609,21.82031625Q3.25391,22.695316249999998,3.74609,23.570316249999998Q4.26562,24.41795625,5.25,24.44535625Z" fill="#4B5563" fill-opacity="1" style="mix-blend-mode:passthrough"/></g></svg>