<svg xmlns="http://www.w3.org/2000/svg" xmlns:xlink="http://www.w3.org/1999/xlink" fill="none" version="1.1" width="16" height="16" viewBox="0 0 16 16"><g transform="matrix(1,0,0,-1,0,32)"><path d="M13,25.5Q12.9688,23.3125,11.75,21.65625L15.7188,17.71875Q16,17.40625,16,17Q16,16.59375,15.7188,16.28125Q15.4062,16,15,16Q14.5938,16,14.2812,16.28125L10.3438,20.25Q8.6875,19.03125,6.5,19Q3.75,19.0625,1.90625,20.90625Q0.0625,22.75,0,25.5Q0.0625,28.25,1.90625,30.0938Q3.75,31.9375,6.5,32Q9.25,31.9375,11.0938,30.0938Q12.9375,28.25,13,25.5ZM6.5,21Q7.71875,21,8.75,21.59375Q9.78125,22.1875,10.4062,23.25Q11,24.3125,11,25.5Q11,26.6875,10.4062,27.75Q9.78125,28.8125,8.75,29.4062Q7.71875,30,6.5,30Q5.28125,30,4.25,29.4062Q3.21875,28.8125,2.59375,27.75Q2,26.6875,2,25.5Q2,24.3125,2.59375,23.25Q3.21875,22.1875,4.25,21.59375Q5.28125,21,6.5,21Z" fill="#9CA3AF" fill-opacity="1" style="mix-blend-mode:passthrough"/></g></svg>